<svg xmlns="http://www.w3.org/2000/svg" viewBox="0 0 128 128">
  <rect width="128" height="128" rx="28" fill="#f6efe2" />
  <path
    d="M31 93c8-29 21-52 33-52 8 0 11 11 13 20 2-15 7-33 19-33 8 0 15 8 15 18 0 20-12 37-25 49l-11-9c10-9 17-20 17-31 0-3-1-5-3-5-6 0-11 19-11 38H64c0-17-3-29-7-29-6 0-14 16-20 39Z"
    fill="#1b1a16"
  />
  <path
    d="M26 91c-5-13-4-29 4-38 5-6 13-8 20-5l-4 15c-3-1-6 0-8 3-4 5-4 14-1 23Zm31-44 3-15c9 1 16 8 18 18l-15 3c-1-4-3-6-6-6Zm39 7 11-11c8 7 11 18 8 29l-15-4c1-5 0-10-4-14Z"
    fill="#c34f35"
  />
</svg>
